<?xml version="1.0" encoding="utf-8"?>
<!-- Generator: Adobe Illustrator 25.2.3, SVG Export Plug-In . SVG Version: 6.00 Build 0)  -->
<svg version="1.1" id="Layer_1" xmlns="http://www.w3.org/2000/svg" xmlns:xlink="http://www.w3.org/1999/xlink" x="0px" y="0px"
	 viewBox="0 0 425.2 143.9" style="enable-background:new 0 0 425.2 143.9;" xml:space="preserve">
<style type="text/css">
	.st0{clip-path:url(#SVGID_2_);}
	.st1{fill:url(#SVGID_3_);}
	.st2{fill:#283583;}
</style>
<g id="Layer_2_1_">
	<g id="Layer_1-2">
		<g>
			<defs>
				<path id="SVGID_1_" d="M60.7,143c7.1,1.1,14.3,1.2,21.4,0.2v-25.8c-7.3-0.4-14.5-1.9-21.4-4.4L60.7,143z M92.2,117.3V141
					c11.6-3.4,22.1-9.6,30.7-18.2c7.9-7.9,13.9-17.6,17.3-28.3C128.4,107.8,110.1,116,92.2,117.3 M0,71.7v0.4
					c0.1,31.4,20.6,59.2,50.6,68.5v-32.2c-1.5-0.8-3.1-1.7-4.6-2.6C21.2,90.3,6,63.6,11.9,32.3C3.8,44,0,59.2,0,71.7 M23.4,18.9
					C13.6,48,24.8,80,50.6,96.7V72h10.1v30.1c4.2,1.8,8.6,3.2,13.1,4.1c2.7,0.5,5.5,0.9,8.2,1.1V84.4h10.1v22.8
					c21.2-1.7,40.3-13.3,51.5-31.3c0-0.1,0.1-0.1,0.1-0.2c0.4-6.9-0.3-13.7-1.8-20.4c-11.4,11.1-26.8,17.4-42.8,17.4
					c-28.4,0-53-19.6-59.4-47.3c-1.3-5.6-1.8-11.4-1.5-17.2C33,11.2,27.9,14.7,23.4,18.9 M82.1,5.3c1.4,6,5.2,11.3,10.5,14.6
					c8.5,5.3,19.4,4.7,27.2-1.6c-10.7-9.6-24-15.7-38.3-17.6C81.6,2.2,81.8,3.8,82.1,5.3 M49,3.7c-1,6.5-0.8,13.1,0.7,19.4
					c3,13.2,11.2,24.6,22.6,31.7c21.6,13.4,49.7,8.9,66-10.5c-2.8-6.9-6.7-13.2-11.6-18.9c-6.1,5.2-13.8,8.1-21.8,8.1
					c-6.3,0-12.5-1.8-17.8-5.1c-7.5-4.7-12.9-12.2-14.8-20.8c-0.6-2.5-0.9-5-0.9-7.6C63.8,0.1,56.2,1.3,49,3.7"/>
			</defs>
			<clipPath id="SVGID_2_">
				<use xlink:href="#SVGID_1_"  style="overflow:visible;"/>
			</clipPath>
			<g class="st0">
				
					<linearGradient id="SVGID_3_" gradientUnits="userSpaceOnUse" x1="-524.111" y1="-766.4995" x2="-523.111" y2="-766.4995" gradientTransform="matrix(114.9734 -164.199 164.199 114.9734 186131.7812 2222.9109)">
					<stop  offset="0" style="stop-color:#3C3F90"/>
					<stop  offset="0.35" style="stop-color:#3C3F90"/>
					<stop  offset="0.54" style="stop-color:#206C78"/>
					<stop  offset="0.71" style="stop-color:#099165"/>
					<stop  offset="0.8" style="stop-color:#009F5E"/>
					<stop  offset="1" style="stop-color:#009F5E"/>
				</linearGradient>
				<polygon class="st1" points="-67.8,96.8 47.4,-67.7 211.9,47.5 96.7,212 				"/>
			</g>
		</g>
		<path class="st2" d="M246.6,92.2l5-10.2l5,10.2H246.6z M257.1,72h-11l-20.3,40.4h10.9l5-10.1h19.9l5,10.1h10.9L257.1,72z"/>
		<polygon class="st2" points="312.2,72 300.3,89.9 288.3,72 277.4,72 295.2,98.8 295.2,112.3 305.3,112.3 305.3,98.8 323.1,72 		
			"/>
		<path class="st2" d="M345.1,92.2l5-10.2l5,10.2H345.1z M355.6,72h-11l-20.3,40.4h10.9l5-10.1H360l5,10.1h10.9L355.6,72z"/>
		<polygon class="st2" points="206.3,72 206.3,87.1 185.1,87.1 185.1,72 175,72 175,112.3 185.1,112.3 185.1,97.2 206.3,97.2 
			206.3,112.3 216.4,112.3 216.4,72 		"/>
		<polygon class="st2" points="378.1,72 378.1,82 396.6,82 396.6,112.3 406.7,112.3 406.7,82 425.2,82 425.2,72 		"/>
	</g>
</g>
</svg>
