<svg id="Layer_1" data-name="Layer 1" xmlns="http://www.w3.org/2000/svg" viewBox="0 0 1357.21 1018.75"><defs><style>.cls-1{fill:#c92129;}</style></defs><title>1.Moh Heng LogoA FA_R</title><path class="cls-1" d="M34.4,815.16H71.23l46,138.51,46.46-138.51h36.8l33.32,198.59H197.28L176,888.33,133.8,1013.75H100.49L58.67,888.33l-21.8,125.42H0Z"/><path class="cls-1" d="M335.59,810.16q42.15,0,72.47,30.51t30.33,74.39q0,43.47-29.92,73.58t-72.61,30.11q-44.72,0-74.3-30.92T232,914.39a103.14,103.14,0,0,1,51.67-90.25A101.84,101.84,0,0,1,335.59,810.16Zm-.41,37q-27.57,0-46.35,19.17T270,915.06q0,32.94,23.65,52.11a64.85,64.85,0,0,0,42.17,15q26.88,0,45.81-19.44t18.92-47.93q0-28.35-19.06-48T335.18,847.16Z"/><path class="cls-1" d="M451.78,815.16h38.34v74.93h66.29V815.16h38.2v198.59h-38.2V926.67H490.12v87.08H451.78Z"/><path class="cls-1" d="M689.55,815.16h38.34v74.93h66.29V815.16h38.21v198.59H794.18V926.67H727.89v87.08H689.55Z"/><path class="cls-1" d="M855.76,815.16H964.17v37H893.29v35.91h70.88v36.32H893.29v52.24h70.88v37.13H855.76Z"/><path class="cls-1" d="M977.42,815.16h36.27l85,130.68V815.16h37.8v198.59h-36.37l-84.86-130.28v130.28H977.42Z"/><path class="cls-1" d="M1343,847.56l-26.62,26.33q-25.28-26.73-58.91-26.73-29.33,0-49.12,19.44t-19.8,47.25q0,28.75,20.54,48.73t50.69,20q19.59,0,33-8.23t21.69-25.79H1257V913h99.9l.27,8.37a97.22,97.22,0,0,1-13.5,49.41q-13.5,23.35-35,35.64t-50.36,12.29q-30.92,0-55.15-13.44A98.16,98.16,0,0,1,1164.9,967a106.7,106.7,0,0,1-14.11-53.6q0-39.42,26.06-68.58,30.92-34.7,80.46-34.7a122.63,122.63,0,0,1,48.47,9.59Q1324.82,827.85,1343,847.56Z"/><rect class="cls-1" y="209.96" width="221.53" height="552.36"/><rect class="cls-1" x="273.18" y="209.78" width="221.53" height="552.36"/><path class="cls-1" d="M1157.15,211.25h-23.52V761.84h221.13v-353C1354.76,299.72,1266.28,211.25,1157.15,211.25Z"/><rect class="cls-1" x="857.77" width="221.53" height="762.31"/><path class="cls-1" d="M569.27,211.7H545.75V762.28H766.87v-353C766.87,300.18,678.4,211.7,569.27,211.7Z"/></svg>